<svg xml:space="preserve" style="max-height: 500px" viewBox="472.5 310 982.5 625" y="0px" x="0px" xmlns:xlink="http://www.w3.org/1999/xlink" xmlns="http://www.w3.org/2000/svg" id="Layer_1" version="1.1" width="982.5" height="625">
<style type="text/css">
	.st0{fill:#B3B3B3;}
	.st1{fill:url(#SVGID_1_);}
	.st2{fill:url(#SVGID_2_);}
	.st3{fill:url(#SVGID_3_);}
	.st4{fill:url(#SVGID_4_);}
	.st5{fill:url(#SVGID_5_);}
	.st6{fill:url(#SVGID_6_);}
	.st7{fill:url(#SVGID_7_);}
	.st8{fill:url(#SVGID_8_);}
	.st9{fill:url(#SVGID_9_);}
	.st10{fill:url(#SVGID_10_);}
	.st11{fill:url(#SVGID_11_);}
	.st12{fill:url(#SVGID_12_);}
	.st13{fill:url(#SVGID_13_);}
	.st14{fill:url(#SVGID_14_);}
	.st15{fill:url(#SVGID_15_);}
	.st16{fill:url(#SVGID_16_);}
	.st17{fill:url(#SVGID_17_);}
	.st18{fill:url(#SVGID_18_);}
	.st19{fill:url(#SVGID_19_);}
	.st20{fill:url(#SVGID_20_);}
	.st21{fill:url(#SVGID_21_);}
	.st22{fill:url(#SVGID_22_);}
	.st23{fill:url(#SVGID_23_);}
	.st24{fill:url(#SVGID_24_);}
	.st25{fill:url(#SVGID_25_);}
	.st26{fill:url(#SVGID_26_);}
	.st27{fill:url(#SVGID_27_);}
	.st28{fill:url(#SVGID_28_);}
	.st29{fill:url(#SVGID_29_);}
	.st30{fill:url(#SVGID_30_);}
	.st31{fill:url(#SVGID_31_);}
	.st32{fill:url(#SVGID_32_);}
	.st33{fill:url(#SVGID_33_);}
	.st34{fill:url(#SVGID_34_);}
	.st35{fill:url(#SVGID_35_);}
	.st36{fill:url(#SVGID_36_);}
	.st37{fill:url(#SVGID_37_);}
	.st38{fill:url(#SVGID_38_);}
	.st39{fill:url(#SVGID_39_);}
	.st40{fill:url(#SVGID_40_);}
	.st41{fill:url(#SVGID_41_);}
	.st42{fill:url(#SVGID_42_);}
	.st43{fill:url(#SVGID_43_);}
	.st44{fill:url(#SVGID_44_);}
	.st45{fill:url(#SVGID_45_);}
	.st46{fill:url(#SVGID_46_);}
	.st47{fill:url(#SVGID_47_);}
	.st48{fill:url(#SVGID_48_);}
	.st49{fill:url(#SVGID_49_);}
	.st50{fill:url(#SVGID_50_);}
	.st51{fill:url(#SVGID_51_);}
	.st52{fill:url(#SVGID_52_);}
	.st53{fill:url(#SVGID_53_);}
	.st54{fill:url(#SVGID_54_);}
	.st55{fill:url(#SVGID_55_);}
	.st56{fill:url(#SVGID_56_);}
	.st57{fill:url(#SVGID_57_);}
	.st58{fill:url(#SVGID_58_);}
	.st59{fill:url(#SVGID_59_);}
	.st60{fill:url(#SVGID_60_);}
	.st61{fill:url(#SVGID_61_);}
	.st62{fill:url(#SVGID_62_);}
	.st63{fill:url(#SVGID_63_);}
	.st64{fill:url(#SVGID_64_);}
	.st65{fill:url(#SVGID_65_);}
	.st66{fill:url(#SVGID_66_);}
	.st67{fill:url(#SVGID_67_);}
	.st68{fill:url(#SVGID_68_);}
	.st69{fill:url(#SVGID_69_);}
	.st70{fill:url(#SVGID_70_);}
	.st71{fill:url(#SVGID_71_);}
	.st72{fill:url(#SVGID_72_);}
	.st73{fill:#FFFFFF;}
</style>
<g>
	<g>
		<g>
			<linearGradient y2="265.6941" x2="1023.3709" y1="933.9614" x1="919.6743" gradientUnits="userSpaceOnUse" id="SVGID_1_">
				<stop style="stop-color:#93BFC7" offset="0"/>
				<stop style="stop-color:#ABE7B2" offset="1"/>
			</linearGradient>
			<path d="M1031.7,632.1h-0.1c-5.5,0-10.9,2-15.1,5.7c-2.9,2.6-5,5.5-6.4,8.8l-0.4,1l-0.4-1c-1.3-3.3-3.5-6.3-6.4-8.9&#10;&#9;&#9;&#9;&#9;c-4.2-3.7-9.5-5.7-15.1-5.7h-8.9v-1.6c0-5.9-2.3-11.4-6.5-15.6c-4.2-4.2-9.7-6.5-15.6-6.5h-9c-7.2,0-13.5,2.8-17.9,7.9&#10;&#9;&#9;&#9;&#9;c-1,1.2-1.7,2-2.2,2.7c-0.6,0.7-1.1,1.5-1.6,2.3l-9,15.6l-9-15.6c-0.5-0.8-1-1.6-1.6-2.3c-0.5-0.6-1.2-1.4-2.2-2.6&#10;&#9;&#9;&#9;&#9;c-0.2-0.2-0.3-0.4-0.5-0.5c0.9-0.7,1.7-1.3,2.6-2c9.8-7.3,17.2-16.3,22.6-27.2c2.3-4.7,4.9-9.3,8-13.6c6-8.4,12.8-11.9,23.9-11.9&#10;&#9;&#9;&#9;&#9;c8.9-0.2,16.5,3.8,22,11.8c3.2,4.6,6,9.4,8.4,14.4c5.2,10.5,12.5,19.1,21.9,26.2c5.6,4.3,11.1,8.7,15.5,14.3&#10;&#9;&#9;&#9;&#9;C1029.9,629.2,1030.8,630.6,1031.7,632.1z" class="st1"/>
		</g>
		<g>
			<linearGradient y2="256.198" x2="962.1739" y1="924.4653" x1="858.4772" gradientUnits="userSpaceOnUse" id="SVGID_2_">
				<stop style="stop-color:#93BFC7" offset="0"/>
				<stop style="stop-color:#ABE7B2" offset="1"/>
			</linearGradient>
			<path d="M953.9,508.7c0.1,6.8-0.5,13.5-2.6,20c-7.7,24.3-35.3,23.7-47.3,11.6c-10.1-10.2-13.4-23-12.1-36.9&#10;&#9;&#9;&#9;&#9;c1.4-15.1,7.3-28.7,16.1-41c0.6-0.8,1.2-1.5,1.8-2.2c8.2-9.2,19.3-9.5,27.8-0.4c7.9,8.4,11.9,18.7,14.4,29.8&#10;&#9;&#9;&#9;&#9;C953.4,495.9,953.9,502.3,953.9,508.7z" class="st2"/>
		</g>
		<g>
			<linearGradient y2="267.4168" x2="1034.4729" y1="935.6841" x1="930.7762" gradientUnits="userSpaceOnUse" id="SVGID_3_">
				<stop style="stop-color:#93BFC7" offset="0"/>
				<stop style="stop-color:#ABE7B2" offset="1"/>
			</linearGradient>
			<path d="M966.1,508.8c0.2-16.1,3.4-31.4,12.9-44.8c1.3-1.9,2.9-3.7,4.5-5.2c8.4-7.9,18.9-7.5,26.4,1.2&#10;&#9;&#9;&#9;&#9;c8.5,9.8,13.5,21.5,16.7,34c2.7,10.9,2.5,21.7-1.5,32.3c-6.1,16.3-21.3,25.1-36.9,21.3c-11.1-2.7-17.2-10.4-20.1-21&#10;&#9;&#9;&#9;&#9;C966.6,520.8,966.1,514.8,966.1,508.8z" class="st3"/>
		</g>
		<g>
			<linearGradient y2="249.2676" x2="917.5117" y1="917.535" x1="813.8151" gradientUnits="userSpaceOnUse" id="SVGID_4_">
				<stop style="stop-color:#93BFC7" offset="0"/>
				<stop style="stop-color:#ABE7B2" offset="1"/>
			</linearGradient>
			<path d="M896.3,569c0,11.3-3.3,18.6-11.5,22.9c-8.6,4.5-17.3,4.5-25.5-0.9c-8.5-5.5-13.4-13.6-15.6-23.3&#10;&#9;&#9;&#9;&#9;c-3-13.3-1.9-26.4,3.1-39.1c3.7-9.3,12.4-12.3,21.2-7.7c4.2,2.2,7.7,5.1,10.8,8.6C889.5,541.4,895.1,555.4,896.3,569z" class="st4"/>
		</g>
		<g>
			<linearGradient y2="276.8923" x2="1095.5374" y1="945.1597" x1="991.8407" gradientUnits="userSpaceOnUse" id="SVGID_5_">
				<stop style="stop-color:#93BFC7" offset="0"/>
				<stop style="stop-color:#ABE7B2" offset="1"/>
			</linearGradient>
			<path d="M1077.9,557.3c-0.1,10.3-3.6,22.4-14.2,31.6c-6.1,5.3-13.2,7.2-21.2,5.6c-11.5-2.2-19-10.7-18.5-22.5&#10;&#9;&#9;&#9;&#9;c0.8-19.2,8.4-35.4,23.2-48c1.7-1.4,3.6-2.6,5.6-3.5c8.4-4,16.6-0.9,20.4,7.6C1076,534.9,1077.8,544.6,1077.9,557.3z" class="st5"/>
		</g>
	</g>
	<g>
		<g>
			<linearGradient y2="307.9666" x2="1295.7939" y1="976.2339" x1="1192.0973" gradientUnits="userSpaceOnUse" id="SVGID_6_">
				<stop style="stop-color:#93BFC7" offset="0"/>
				<stop style="stop-color:#ABE7B2" offset="1"/>
			</linearGradient>
			<path d="M1233,734.9c2.3,1,4.6,1.8,7,2.4c-5,12.4-10.8,24.5-17.4,36.1c-1.4,2.4-4.4,3.3-6.8,1.9&#10;&#9;&#9;&#9;&#9;c-2.4-1.4-3.3-4.4-1.9-6.8c6.3-11.2,11.9-22.8,16.7-34.7C1231.3,734.2,1232.1,734.6,1233,734.9z" class="st6"/>
			<linearGradient y2="264.5902" x2="1016.2574" y1="932.8576" x1="912.5607" gradientUnits="userSpaceOnUse" id="SVGID_7_">
				<stop style="stop-color:#93BFC7" offset="0"/>
				<stop style="stop-color:#ABE7B2" offset="1"/>
			</linearGradient>
			<path d="M1192.5,817.1c-57.6,69.6-142.3,109.5-232.5,109.5c-40.7,0-80.2-8-117.4-23.7&#10;&#9;&#9;&#9;&#9;c-35.9-15.2-68.2-36.9-95.9-64.6c-27.7-27.7-49.4-59.9-64.6-95.9c-0.7-1.6-1.3-3.2-1.9-4.7h7.6c1.1,0,2.2-0.1,3.3-0.2&#10;&#9;&#9;&#9;&#9;c44.1,105.1,148.1,179.1,269,179.1c87.2,0,169.1-38.6,224.8-105.8c1.8-2.1,4.9-2.4,7.1-0.7C1194,811.8,1194.3,815,1192.5,817.1z" class="st7"/>
			<linearGradient y2="264.3312" x2="1014.588" y1="932.5986" x1="910.8914" gradientUnits="userSpaceOnUse" id="SVGID_8_">
				<stop style="stop-color:#93BFC7" offset="0"/>
				<stop style="stop-color:#ABE7B2" offset="1"/>
			</linearGradient>
			<path d="M1261.6,625c0,2.1,0,4.3-0.1,6.4c-2.6-0.4-5.2-0.6-7.9-0.6c-0.7,0-1.4,0-2.1,0c0-2,0.1-3.9,0.1-5.9&#10;&#9;&#9;&#9;&#9;c0-160.8-130.8-291.6-291.6-291.6c-160.8,0-291.6,130.8-291.6,291.6c0,3.1,0.1,6.1,0.1,9.1c-2.4,1.1-4.6,2.6-6.5,4.5&#10;&#9;&#9;&#9;&#9;c-0.9,0.9-1.6,1.8-2.3,2.7c-0.3-0.4-0.7-0.9-1-1.3c-0.2-5-0.4-10-0.4-15c0-40.7,8-80.2,23.7-117.4c15.2-35.9,36.9-68.2,64.6-95.9&#10;&#9;&#9;&#9;&#9;c27.7-27.7,60-49.4,95.9-64.6c37.2-15.7,76.7-23.7,117.4-23.7c40.7,0,80.2,8,117.4,23.7c35.9,15.2,68.2,36.9,95.9,64.6&#10;&#9;&#9;&#9;&#9;c27.7,27.7,49.4,60,64.6,95.9C1253.6,544.8,1261.6,584.3,1261.6,625z" class="st8"/>
		</g>
		<g>
			<linearGradient y2="230.2358" x2="794.8621" y1="898.5032" x1="691.1654" gradientUnits="userSpaceOnUse" id="SVGID_9_">
				<stop style="stop-color:#93BFC7" offset="0"/>
				<stop style="stop-color:#ABE7B2" offset="1"/>
			</linearGradient>
			<path d="M721.4,625c0,2.4,0,4.8,0.1,7.1H713c-0.5,0-1.1,0-1.6,0.1c-0.1-2.4-0.1-4.8-0.1-7.2&#10;&#9;&#9;&#9;&#9;c0-61.5,22.7-120.6,64-166.4c1.9-2.1,5-2.2,7.1-0.4c2.1,1.9,2.2,5,0.4,7.1C743.2,509.2,721.4,565.9,721.4,625z" class="st9"/>
			<linearGradient y2="267.0384" x2="1032.0342" y1="935.3057" x1="928.3376" gradientUnits="userSpaceOnUse" id="SVGID_10_">
				<stop style="stop-color:#93BFC7" offset="0"/>
				<stop style="stop-color:#ABE7B2" offset="1"/>
			</linearGradient>
			<path d="M1182.9,735.2c-40.7,82-125.3,138.5-222.9,138.5c-98.3,0-183.5-57.4-223.8-140.4c0.9-0.6,1.7-1.3,2.4-2.1&#10;&#9;&#9;&#9;&#9;c1.1-1.1,2.1-2.4,3-3.7c0.8,1.3,1.8,2.5,3,3.7c0.9,0.9,2,1.8,3,2.5c39.6,77.1,120,129.9,212.4,129.9&#10;&#9;&#9;&#9;&#9;c94.6,0,176.5-55.3,215.1-135.2c0.7,1,1.5,1.9,2.3,2.8C1179,732.8,1180.9,734.2,1182.9,735.2z" class="st10"/>
			<linearGradient y2="294.9214" x2="1211.7251" y1="963.1888" x1="1108.0284" gradientUnits="userSpaceOnUse" id="SVGID_11_">
				<stop style="stop-color:#93BFC7" offset="0"/>
				<stop style="stop-color:#ABE7B2" offset="1"/>
			</linearGradient>
			<path d="M1208.1,607.5c-1.4-0.3-2.9-0.4-4.4-0.4h-5.7c-3.8-50.3-23.5-98.3-56.5-136.9c-1.8-2.1-1.5-5.3,0.6-7.1&#10;&#9;&#9;&#9;&#9;c2.1-1.8,5.3-1.6,7.1,0.6C1183.7,504.2,1204.3,554.7,1208.1,607.5z" class="st11"/>
		</g>
		<g>
			<linearGradient y2="259.9893" x2="986.6066" y1="928.2567" x1="882.91" gradientUnits="userSpaceOnUse" id="SVGID_12_">
				<stop style="stop-color:#93BFC7" offset="0"/>
				<stop style="stop-color:#ABE7B2" offset="1"/>
			</linearGradient>
			<path d="M803.1,443.7c-1.4,0-2.8-0.6-3.8-1.8c-1.8-2.1-1.5-5.3,0.6-7.1c44.8-37.8,101.6-58.6,160.1-58.6&#10;&#9;&#9;&#9;&#9;c29.3,0,58.1,5.1,85.4,15.1c26.4,9.7,50.9,23.7,72.7,41.7c2.1,1.8,2.4,4.9,0.7,7.1c-1.8,2.1-4.9,2.4-7.1,0.7&#10;&#9;&#9;&#9;&#9;c-42.6-35.2-96.5-54.6-151.7-54.6c-56.1,0-110.7,20-153.7,56.2C805.4,443.3,804.2,443.7,803.1,443.7z" class="st12"/>
		</g>
		<g>
			<linearGradient y2="269.0055" x2="1044.7109" y1="937.2728" x1="941.0143" gradientUnits="userSpaceOnUse" id="SVGID_13_">
				<stop style="stop-color:#93BFC7" offset="0"/>
				<stop style="stop-color:#ABE7B2" offset="1"/>
			</linearGradient>
			<path d="M1032.5,806.8c-23.1,9.2-47.5,13.9-72.5,13.9c-23.6,0-46.7-4.2-68.7-12.4c-2.6-1-3.9-3.9-2.9-6.5&#10;&#9;&#9;&#9;&#9;c1-2.6,3.9-3.9,6.5-2.9c20.8,7.8,42.8,11.8,65.2,11.8c23.8,0,46.9-4.4,68.8-13.2c2.6-1,5.5,0.2,6.5,2.8&#10;&#9;&#9;&#9;&#9;C1036.4,802.9,1035.1,805.8,1032.5,806.8z" class="st13"/>
		</g>
		<g>
			<linearGradient y2="287.6956" x2="1165.1586" y1="955.963" x1="1061.4619" gradientUnits="userSpaceOnUse" id="SVGID_14_">
				<stop style="stop-color:#93BFC7" offset="0"/>
				<stop style="stop-color:#ABE7B2" offset="1"/>
			</linearGradient>
			<path d="M1122.3,731.2c0.4,0.4,0.9,0.8,1.3,1.2c-14.2,21.6-32.8,40.6-55.1,55.5c-0.9,0.6-1.8,0.8-2.8,0.8&#10;&#9;&#9;&#9;&#9;c-1.6,0-3.2-0.8-4.2-2.2c-1.5-2.3-0.9-5.4,1.4-7c22.2-14.9,40.6-34,54.4-55.9C1118.5,726.4,1120.1,729,1122.3,731.2z" class="st14"/>
			<linearGradient y2="247.1442" x2="903.8275" y1="915.4116" x1="800.1308" gradientUnits="userSpaceOnUse" id="SVGID_15_">
				<stop style="stop-color:#93BFC7" offset="0"/>
				<stop style="stop-color:#ABE7B2" offset="1"/>
			</linearGradient>
			<path d="M850.5,781.2c-1.6,2.2-4.8,2.7-7,1c-17.7-13.1-33.1-29.3-45.5-47.5c4.8,2.3,10,3.6,15.4,4.1&#10;&#9;&#9;&#9;&#9;c10.3,13.3,22.4,25.2,36.1,35.4C851.7,775.8,852.2,779,850.5,781.2z" class="st15"/>
			<linearGradient y2="264.4456" x2="1015.3254" y1="932.713" x1="911.6288" gradientUnits="userSpaceOnUse" id="SVGID_16_">
				<stop style="stop-color:#93BFC7" offset="0"/>
				<stop style="stop-color:#ABE7B2" offset="1"/>
			</linearGradient>
			<path d="M1155.7,625c0,2.8-0.1,5.7-0.2,8.5c-2.4-0.9-5-1.3-7.6-1.3h-2.4c0.1-2.4,0.1-4.8,0.1-7.1&#10;&#9;&#9;&#9;&#9;c0-102.4-83.3-185.7-185.7-185.7c-102.4,0-185.7,83.3-185.7,185.7c0,5,0.2,10,0.6,14.9c-2.5-1.9-5.2-3.5-8.1-4.9&#10;&#9;&#9;&#9;&#9;c-0.8-0.4-1.5-0.7-2.3-1c-0.1-3-0.2-6-0.2-9.1c0-107.9,87.8-195.8,195.8-195.8C1067.9,429.2,1155.7,517.1,1155.7,625z" class="st16"/>
		</g>
	</g>
	<g>
		<g>
			<linearGradient y2="208.4799" x2="654.6573" y1="876.7473" x1="550.9607" gradientUnits="userSpaceOnUse" id="SVGID_17_">
				<stop style="stop-color:#93BFC7" offset="0"/>
				<stop style="stop-color:#ABE7B2" offset="1"/>
			</linearGradient>
			<path d="M580.7,688.1c0-0.1,0-0.3,0-0.5c0-0.8-0.1-1.8-0.1-2.7c0-0.9,0-1.8,0.1-2.6c0-0.2,0-0.3,0-0.5V688.1z" class="st17"/>
		</g>
		<g>
			<linearGradient y2="334.5028" x2="1466.8047" y1="1002.7701" x1="1363.108" gradientUnits="userSpaceOnUse" id="SVGID_18_">
				<stop style="stop-color:#93BFC7" offset="0"/>
				<stop style="stop-color:#ABE7B2" offset="1"/>
			</linearGradient>
			<path d="M1412.5,687.8c0,0.1,0,0.2,0,0.3c0-0.3-0.1-0.6-0.1-1c0-0.1,0-0.2,0-0.2c-0.1-1.3-0.1-2.6,0-3.9&#10;&#9;&#9;&#9;&#9;c0-0.1,0-0.2,0-0.2c0-0.4,0.1-0.7,0.1-1c0,0.1,0,0.2,0,0.3c0,0.2,0.1,1.1,0.1,2.9C1412.6,686.7,1412.5,687.6,1412.5,687.8z" class="st18"/>
		</g>
		<g>
			<linearGradient y2="196.3011" x2="576.1716" y1="864.5684" x1="472.4749" gradientUnits="userSpaceOnUse" id="SVGID_19_">
				<stop style="stop-color:#93BFC7" offset="0"/>
				<stop style="stop-color:#ABE7B2" offset="1"/>
			</linearGradient>
			<path d="M534.3,626.9c1,0,1.8,0.4,2.5,1.1c0.7,0.7,1.1,1.5,1.1,2.5v9.4c0,1-0.4,1.8-1.1,2.5&#10;&#9;&#9;&#9;&#9;c-0.7,0.7-1.5,1.1-2.5,1.1h-42V669h39.4c1,0,1.8,0.4,2.5,1.1c0.7,0.7,1.1,1.5,1.1,2.5v9.4c0,1-0.4,1.8-1.1,2.5&#10;&#9;&#9;&#9;&#9;c-0.7,0.7-1.5,1.1-2.5,1.1h-39.4v30.2c0,1-0.4,1.8-1.1,2.5c-0.7,0.7-1.5,1.1-2.5,1.1H478c-1,0-1.8-0.3-2.5-1.1&#10;&#9;&#9;&#9;&#9;c-0.7-0.7-1.1-1.5-1.1-2.5v-85.1c0-1,0.3-1.8,1.1-2.5c0.7-0.7,1.5-1.1,2.5-1.1H534.3z" class="st19"/>
		</g>
		<g>
			<linearGradient y2="208.4812" x2="654.6657" y1="876.7485" x1="550.9691" gradientUnits="userSpaceOnUse" id="SVGID_20_">
				<stop style="stop-color:#93BFC7" offset="0"/>
				<stop style="stop-color:#ABE7B2" offset="1"/>
			</linearGradient>
			<path d="M580.8,649.3c4.8,0,9.2,0.7,13.1,2.2c3.9,1.5,7.3,3.6,10.1,6.2c2.9,2.6,5.1,5.7,6.8,9.2&#10;&#9;&#9;&#9;&#9;c1.7,3.5,2.7,7.3,3,11.3c0.1,0.8,0.1,1.8,0.1,3c0,1.2,0,2.5,0,3.7c0,1.2,0,2.4,0,3.6c0,1.2,0,2.2-0.1,3c-0.4,4-1.4,7.8-3,11.3&#10;&#9;&#9;&#9;&#9;c-1.7,3.5-3.9,6.6-6.8,9.2c-2.9,2.6-6.2,4.6-10.1,6.1c-3.9,1.5-8.3,2.2-13.1,2.2c-4.8,0-9.2-0.7-13.1-2.2&#10;&#9;&#9;&#9;&#9;c-3.9-1.5-7.3-3.5-10.1-6.1c-2.9-2.6-5.1-5.6-6.8-9.2c-1.7-3.5-2.7-7.3-3-11.3c-0.1-0.8-0.2-1.8-0.2-3c0-1.2-0.1-2.4-0.1-3.6&#10;&#9;&#9;&#9;&#9;c0-1.2,0-2.5,0.1-3.7c0-1.2,0.1-2.2,0.2-3c0.3-4,1.3-7.8,3-11.3c1.7-3.5,4-6.6,6.8-9.2c2.9-2.6,6.2-4.7,10.1-6.2&#10;&#9;&#9;&#9;&#9;C571.6,650.1,575.9,649.3,580.8,649.3z M596.7,679c-0.3-2.7-0.9-5-1.9-6.8c-1-1.8-2.3-3.2-3.8-4.3c-1.5-1.1-3.1-1.8-4.9-2.2&#10;&#9;&#9;&#9;&#9;c-1.8-0.4-3.6-0.6-5.4-0.6c-1.8,0-3.6,0.2-5.4,0.6c-1.8,0.4-3.4,1.1-4.9,2.2c-1.5,1.1-2.7,2.5-3.8,4.3c-1,1.8-1.6,4.1-1.9,6.8&#10;&#9;&#9;&#9;&#9;c-0.1,0.7-0.2,1.6-0.2,2.6c0,1.1-0.1,2.2-0.1,3.3c0,1.1,0,2.3,0.1,3.4c0,1.1,0.1,2,0.2,2.6c0.3,2.7,0.9,5,1.9,6.8&#10;&#9;&#9;&#9;&#9;c1,1.8,2.3,3.2,3.8,4.3c1.5,1.1,3.1,1.8,4.9,2.2c1.8,0.4,3.6,0.6,5.4,0.6c1.8,0,3.6-0.2,5.4-0.6c1.8-0.4,3.4-1.1,4.9-2.2&#10;&#9;&#9;&#9;&#9;c1.5-1.1,2.7-2.5,3.8-4.3c1-1.8,1.6-4.1,1.9-6.8c0.1-0.6,0.1-1.5,0.1-2.6c0-1.1,0-2.2,0-3.4c0-1.1,0-2.2,0-3.3&#10;&#9;&#9;&#9;&#9;C596.8,680.6,596.8,679.7,596.7,679z" class="st20"/>
		</g>
		<g>
			<linearGradient y2="220.4592" x2="731.8575" y1="888.7266" x1="628.1609" gradientUnits="userSpaceOnUse" id="SVGID_21_">
				<stop style="stop-color:#93BFC7" offset="0"/>
				<stop style="stop-color:#ABE7B2" offset="1"/>
			</linearGradient>
			<path d="M628.3,654.2c0-1,0.3-1.8,1.1-2.5c0.7-0.7,1.5-1.1,2.5-1.1h10c1,0,1.8,0.4,2.5,1.1c0.7,0.7,1.1,1.5,1.1,2.5&#10;&#9;&#9;&#9;&#9;v33.5c0,5.3,1.1,9.5,3.4,12.6c2.2,3.2,5.9,4.7,11,4.7c4.7,0,8.2-1.6,10.7-4.7c2.5-3.2,3.7-7.4,3.7-12.6v-33.5&#10;&#9;&#9;&#9;&#9;c0-1,0.4-1.8,1.1-2.5c0.7-0.7,1.5-1.1,2.5-1.1h10c1,0,1.8,0.4,2.5,1.1c0.7,0.7,1.1,1.5,1.1,2.5v61.4c0,1-0.4,1.8-1.1,2.5&#10;&#9;&#9;&#9;&#9;c-0.7,0.7-1.5,1.1-2.5,1.1h-10c-1,0-1.8-0.3-2.5-1.1c-0.7-0.7-1.1-1.5-1.1-2.5v-3c-2,2-4.5,3.8-7.5,5.5c-3,1.6-6.6,2.4-10.8,2.4&#10;&#9;&#9;&#9;&#9;c-5.4,0-9.8-0.8-13.3-2.5c-3.5-1.7-6.3-3.9-8.4-6.7c-2.1-2.8-3.6-6.1-4.5-9.8c-0.9-3.7-1.3-7.7-1.3-11.8V654.2z" class="st21"/>
		</g>
		<g>
			<linearGradient y2="232.8545" x2="811.7381" y1="901.1218" x1="708.0414" gradientUnits="userSpaceOnUse" id="SVGID_22_">
				<stop style="stop-color:#93BFC7" offset="0"/>
				<stop style="stop-color:#ABE7B2" offset="1"/>
			</linearGradient>
			<path d="M773.7,715.6c0,1-0.4,1.8-1.1,2.5c-0.7,0.7-1.5,1.1-2.5,1.1h-10c-1,0-1.8-0.3-2.5-1.1&#10;&#9;&#9;&#9;&#9;c-0.7-0.7-1.1-1.5-1.1-2.5v-33.5c0-5.3-1.2-9.5-3.7-12.6c-2.5-3.2-6.2-4.7-11.3-4.7c-4.7,0-8.3,1.6-11,4.7c-2.7,3.2-4,7.4-4,12.6&#10;&#9;&#9;&#9;&#9;v33.5c0,1-0.4,1.8-1.1,2.5c-0.7,0.7-1.5,1.1-2.5,1.1h-10c-1,0-1.8-0.3-2.5-1.1c-0.7-0.7-1.1-1.5-1.1-2.5v-61.4&#10;&#9;&#9;&#9;&#9;c0-1,0.3-1.8,1.1-2.5c0.7-0.7,1.5-1.1,2.5-1.1h10c1,0,1.8,0.4,2.5,1.1c0.7,0.7,1.1,1.5,1.1,2.5v3c2.3-2.3,5-4.2,8-5.7&#10;&#9;&#9;&#9;&#9;c3.1-1.5,6.7-2.2,10.9-2.2c5.4,0,9.8,0.8,13.4,2.5c3.6,1.7,6.5,3.9,8.7,6.7c2.2,2.8,3.8,6.1,4.7,9.8c0.9,3.7,1.4,7.7,1.4,11.8&#10;&#9;&#9;&#9;&#9;V715.6z" class="st22"/>
		</g>
		<g>
			<linearGradient y2="245.2428" x2="891.5737" y1="913.5101" x1="787.877" gradientUnits="userSpaceOnUse" id="SVGID_23_">
				<stop style="stop-color:#93BFC7" offset="0"/>
				<stop style="stop-color:#ABE7B2" offset="1"/>
			</linearGradient>
			<path d="M817.6,649.3c2.7,0,5.2,0.3,7.3,0.8c2.2,0.5,4,1.2,5.7,2c1.6,0.8,3,1.6,4.1,2.6c1.1,0.9,2.1,1.8,2.8,2.6&#10;&#9;&#9;&#9;&#9;v-28.1c0-1,0.4-1.8,1.1-2.5c0.7-0.7,1.5-1.1,2.5-1.1h10c1,0,1.8,0.4,2.5,1.1c0.7,0.7,1.1,1.5,1.1,2.5v86.4c0,1-0.4,1.8-1.1,2.5&#10;&#9;&#9;&#9;&#9;c-0.7,0.7-1.5,1.1-2.5,1.1h-10c-1,0-1.8-0.3-2.5-1.1c-0.7-0.7-1.1-1.5-1.1-2.5v-3c-0.7,0.8-1.6,1.6-2.8,2.6&#10;&#9;&#9;&#9;&#9;c-1.1,0.9-2.5,1.8-4.1,2.6c-1.6,0.8-3.5,1.4-5.7,2c-2.2,0.5-4.6,0.8-7.3,0.8c-4.4,0-8.4-0.9-11.9-2.6c-3.6-1.7-6.6-4-9.1-6.9&#10;&#9;&#9;&#9;&#9;c-2.5-2.9-4.5-6.1-5.9-9.9c-1.4-3.7-2.3-7.6-2.4-11.7c-0.1-1.3-0.1-2.9-0.1-4.6c0-1.8,0-3.3,0.1-4.6c0.2-4,1-7.9,2.4-11.7&#10;&#9;&#9;&#9;&#9;c1.4-3.7,3.4-7,5.9-9.9c2.5-2.9,5.5-5.1,9.1-6.8C809.2,650.2,813.2,649.3,817.6,649.3z M805.3,681.2c-0.3,2.5-0.3,4.9,0,7.4&#10;&#9;&#9;&#9;&#9;c0.5,5.7,2.3,9.8,5.3,12.3c3,2.5,6.6,3.8,10.9,3.8c4.3,0,7.9-1.3,10.9-3.8c2.9-2.5,4.6-6.2,5.1-10.9c0.2-1.3,0.3-3,0.3-5&#10;&#9;&#9;&#9;&#9;c0-2-0.1-3.7-0.3-5c-0.4-4.6-2.1-8.2-5.1-10.8c-2.9-2.6-6.6-4-10.9-4c-4.3,0-7.9,1.3-10.9,3.8&#10;&#9;&#9;&#9;&#9;C807.6,671.4,805.9,675.5,805.3,681.2z" class="st23"/>
		</g>
		<g>
			<linearGradient y2="259.1824" x2="981.407" y1="927.4498" x1="877.7103" gradientUnits="userSpaceOnUse" id="SVGID_24_">
				<stop style="stop-color:#93BFC7" offset="0"/>
				<stop style="stop-color:#ABE7B2" offset="1"/>
			</linearGradient>
			<path d="M917.2,674l25-43.5c0.3-0.4,0.9-1.1,1.8-2.1c0.8-1,2.1-1.4,3.9-1.4h9c1,0,1.8,0.4,2.5,1.1&#10;&#9;&#9;&#9;&#9;c0.7,0.7,1.1,1.5,1.1,2.5v85.1c0,1-0.4,1.8-1.1,2.5c-0.7,0.7-1.5,1.1-2.5,1.1h-10.7c-1,0-1.8-0.3-2.5-1.1&#10;&#9;&#9;&#9;&#9;c-0.7-0.7-1.1-1.5-1.1-2.5v-51.5l-17.1,29.6c-0.4,0.7-1.1,1.4-1.8,2.2c-0.8,0.7-1.8,1.1-3,1.1h-6.8c-1.2,0-2.2-0.4-3-1.1&#10;&#9;&#9;&#9;&#9;c-0.8-0.7-1.4-1.5-1.8-2.2l-17.1-29.6v51.5c0,1-0.4,1.8-1.1,2.5c-0.7,0.7-1.5,1.1-2.5,1.1h-10.7c-1,0-1.8-0.3-2.5-1.1&#10;&#9;&#9;&#9;&#9;c-0.7-0.7-1.1-1.5-1.1-2.5v-85.1c0-1,0.3-1.8,1.1-2.5c0.7-0.7,1.5-1.1,2.5-1.1h9c1.8,0,3.1,0.5,3.9,1.4c0.8,1,1.4,1.7,1.8,2.1&#10;&#9;&#9;&#9;&#9;L917.2,674z" class="st24"/>
		</g>
		<g>
			<linearGradient y2="272.7515" x2="1068.8522" y1="941.0189" x1="965.1555" gradientUnits="userSpaceOnUse" id="SVGID_25_">
				<stop style="stop-color:#93BFC7" offset="0"/>
				<stop style="stop-color:#ABE7B2" offset="1"/>
			</linearGradient>
			<path d="M1000.6,715.5l-26.1-60.3c-0.1-0.3-0.1-0.6-0.1-0.9c0-1,0.3-1.8,1.1-2.5c0.7-0.7,1.5-1.1,2.5-1.1h9.9&#10;&#9;&#9;&#9;&#9;c1.1,0,2,0.4,2.8,1.1c0.8,0.7,1.3,1.4,1.6,2.1l17.5,40.7l17.5-40.7c0.3-0.7,0.8-1.4,1.6-2.1c0.8-0.7,1.7-1.1,2.8-1.1h9.9&#10;&#9;&#9;&#9;&#9;c1,0,1.8,0.4,2.5,1.1c0.7,0.7,1.1,1.5,1.1,2.5c0,0.4,0,0.7-0.1,0.9l-37,85.9c-0.3,0.7-0.8,1.4-1.6,2.1c-0.8,0.7-1.7,1.1-2.8,1.1&#10;&#9;&#9;&#9;&#9;h-9.9c-1,0-1.8-0.4-2.5-1.1c-0.7-0.7-1.1-1.5-1.1-2.5c0-0.4,0-0.7,0.1-0.9L1000.6,715.5z" class="st25"/>
		</g>
		<g>
			<linearGradient y2="284.8041" x2="1146.5245" y1="953.0715" x1="1042.8279" gradientUnits="userSpaceOnUse" id="SVGID_26_">
				<stop style="stop-color:#93BFC7" offset="0"/>
				<stop style="stop-color:#ABE7B2" offset="1"/>
			</linearGradient>
			<path d="M1118.3,626.9c1,0,1.8,0.4,2.5,1.1c0.7,0.7,1.1,1.5,1.1,2.5v9.4c0,1-0.4,1.8-1.1,2.5&#10;&#9;&#9;&#9;&#9;c-0.7,0.7-1.5,1.1-2.5,1.1h-42V669h39.4c1,0,1.8,0.4,2.5,1.1c0.7,0.7,1.1,1.5,1.1,2.5v9.4c0,1-0.4,1.8-1.1,2.5&#10;&#9;&#9;&#9;&#9;c-0.7,0.7-1.5,1.1-2.5,1.1h-39.4v30.2c0,1-0.4,1.8-1.1,2.5c-0.7,0.7-1.5,1.1-2.5,1.1h-10.7c-1,0-1.8-0.3-2.5-1.1&#10;&#9;&#9;&#9;&#9;c-0.7-0.7-1.1-1.5-1.1-2.5v-85.1c0-1,0.3-1.8,1.1-2.5c0.7-0.7,1.5-1.1,2.5-1.1H1118.3z" class="st26"/>
		</g>
		<g>
			<linearGradient y2="295.0994" x2="1212.8719" y1="963.3668" x1="1109.1753" gradientUnits="userSpaceOnUse" id="SVGID_27_">
				<stop style="stop-color:#93BFC7" offset="0"/>
				<stop style="stop-color:#ABE7B2" offset="1"/>
			</linearGradient>
			<path d="M1166.4,666.5c-5.3,0-9.1,1.2-11.4,3.5c-2.3,2.3-3.5,6.1-3.5,11.4v34.3c0,1-0.4,1.8-1.1,2.5&#10;&#9;&#9;&#9;&#9;c-0.7,0.7-1.5,1.1-2.5,1.1h-10c-1,0-1.8-0.3-2.5-1.1c-0.7-0.7-1.1-1.5-1.1-2.5v-61.4c0-1,0.3-1.8,1.1-2.5&#10;&#9;&#9;&#9;&#9;c0.7-0.7,1.5-1.1,2.5-1.1h10c1,0,1.8,0.4,2.5,1.1c0.7,0.7,1.1,1.5,1.1,2.5v3c2.3-2.1,4.7-3.7,7.3-4.9c2.6-1.1,6-1.7,10.2-1.7h5.9&#10;&#9;&#9;&#9;&#9;c1,0,1.8,0.4,2.5,1.1c0.7,0.7,1.1,1.5,1.1,2.5v8.7c0,1-0.4,1.8-1.1,2.5c-0.7,0.7-1.5,1.1-2.5,1.1H1166.4z" class="st27"/>
		</g>
		<g>
			<linearGradient y2="301.6722" x2="1255.2301" y1="969.9396" x1="1151.5334" gradientUnits="userSpaceOnUse" id="SVGID_28_">
				<stop style="stop-color:#93BFC7" offset="0"/>
				<stop style="stop-color:#ABE7B2" offset="1"/>
			</linearGradient>
			<path d="M1203.7,625.6c1,0,1.8,0.4,2.5,1.1c0.7,0.7,1.1,1.5,1.1,2.5v10.3c0,1-0.4,1.8-1.1,2.5&#10;&#9;&#9;&#9;&#9;c-0.7,0.7-1.5,1.1-2.5,1.1h-11.3c-1,0-1.8-0.3-2.5-1.1c-0.7-0.7-1.1-1.5-1.1-2.5v-10.3c0-1,0.3-1.8,1.1-2.5&#10;&#9;&#9;&#9;&#9;c0.7-0.7,1.5-1.1,2.5-1.1H1203.7z M1206.6,715.6c0,1-0.4,1.8-1.1,2.5c-0.7,0.7-1.5,1.1-2.5,1.1h-10c-1,0-1.8-0.3-2.5-1.1&#10;&#9;&#9;&#9;&#9;c-0.7-0.7-1.1-1.5-1.1-2.5v-61.4c0-1,0.3-1.8,1.1-2.5c0.7-0.7,1.5-1.1,2.5-1.1h10c1,0,1.8,0.4,2.5,1.1c0.7,0.7,1.1,1.5,1.1,2.5&#10;&#9;&#9;&#9;&#9;V715.6z" class="st28"/>
		</g>
		<g>
			<linearGradient y2="310.4559" x2="1311.8361" y1="978.7233" x1="1208.1394" gradientUnits="userSpaceOnUse" id="SVGID_29_">
				<stop style="stop-color:#93BFC7" offset="0"/>
				<stop style="stop-color:#ABE7B2" offset="1"/>
			</linearGradient>
			<path d="M1221.4,684.9c0-4.9,0.7-9.6,2.2-13.9c1.5-4.3,3.6-8.1,6.5-11.3c2.8-3.2,6.2-5.7,10.2-7.6&#10;&#9;&#9;&#9;&#9;c4-1.8,8.5-2.8,13.4-2.8c4.9,0,9.4,0.9,13.4,2.7c4,1.8,7.4,4.2,10.2,7.2c2.8,3,5,6.6,6.5,10.7c1.5,4.1,2.3,8.4,2.3,12.8v5.9&#10;&#9;&#9;&#9;&#9;c0,1-0.4,1.8-1.1,2.5c-0.7,0.7-1.5,1.1-2.5,1.1h-44c0,2,0.4,3.8,1.3,5.3c0.8,1.5,2,2.8,3.4,3.9c1.4,1.1,3,1.8,4.9,2.4&#10;&#9;&#9;&#9;&#9;c1.8,0.5,3.7,0.8,5.7,0.8c2.8,0,5.1-0.3,6.8-0.9c1.8-0.6,3.2-1.3,4.3-2.2c1-0.7,1.8-1.2,2.4-1.4c0.6-0.3,1.4-0.4,2.5-0.4h10.5&#10;&#9;&#9;&#9;&#9;c1,0,1.8,0.4,2.6,1.1c0.7,0.7,1.1,1.5,1,2.5c-0.1,1.2-0.8,2.8-2,4.7c-1.3,1.9-3.2,3.8-5.7,5.7c-2.5,1.8-5.7,3.4-9.4,4.7&#10;&#9;&#9;&#9;&#9;c-3.7,1.3-8.1,2-13,2c-4.9,0-9.4-0.9-13.4-2.6c-4-1.7-7.4-4.1-10.2-7.3c-2.8-3.2-5-6.9-6.5-11.3&#10;&#9;&#9;&#9;&#9;C1222.1,695,1221.4,690.2,1221.4,684.9z M1253.6,665.1c-2.5,0-4.7,0.4-6.5,1.1c-1.8,0.7-3.3,1.7-4.5,2.9c-1.2,1.2-2.2,2.5-2.8,4&#10;&#9;&#9;&#9;&#9;c-0.7,1.4-1.1,2.8-1.3,4.1h29.8c-0.2-1.3-0.5-2.7-1-4.1c-0.5-1.4-1.3-2.8-2.4-4c-1.1-1.2-2.5-2.2-4.3-2.9&#10;&#9;&#9;&#9;&#9;C1258.7,665.5,1256.4,665.1,1253.6,665.1z" class="st29"/>
		</g>
		<g>
			<linearGradient y2="322.3955" x2="1388.7803" y1="990.6629" x1="1285.0836" gradientUnits="userSpaceOnUse" id="SVGID_30_">
				<stop style="stop-color:#93BFC7" offset="0"/>
				<stop style="stop-color:#ABE7B2" offset="1"/>
			</linearGradient>
			<path d="M1364.7,715.6c0,1-0.4,1.8-1.1,2.5c-0.7,0.7-1.5,1.1-2.5,1.1h-10c-1,0-1.8-0.3-2.5-1.1&#10;&#9;&#9;&#9;&#9;c-0.7-0.7-1.1-1.5-1.1-2.5v-33.5c0-5.3-1.2-9.5-3.7-12.6c-2.5-3.2-6.2-4.7-11.3-4.7c-4.7,0-8.3,1.6-11,4.7c-2.7,3.2-4,7.4-4,12.6&#10;&#9;&#9;&#9;&#9;v33.5c0,1-0.4,1.8-1.1,2.5c-0.7,0.7-1.5,1.1-2.5,1.1h-10c-1,0-1.8-0.3-2.5-1.1c-0.7-0.7-1.1-1.5-1.1-2.5v-61.4&#10;&#9;&#9;&#9;&#9;c0-1,0.3-1.8,1.1-2.5c0.7-0.7,1.5-1.1,2.5-1.1h10c1,0,1.8,0.4,2.5,1.1c0.7,0.7,1.1,1.5,1.1,2.5v3c2.3-2.3,5-4.2,8-5.7&#10;&#9;&#9;&#9;&#9;c3.1-1.5,6.7-2.2,10.9-2.2c5.4,0,9.8,0.8,13.4,2.5c3.6,1.7,6.5,3.9,8.7,6.7c2.2,2.8,3.8,6.1,4.7,9.8c0.9,3.7,1.4,7.7,1.4,11.8&#10;&#9;&#9;&#9;&#9;V715.6z" class="st30"/>
		</g>
		<g>
			<linearGradient y2="334.7838" x2="1468.6158" y1="1003.0511" x1="1364.9192" gradientUnits="userSpaceOnUse" id="SVGID_31_">
				<stop style="stop-color:#93BFC7" offset="0"/>
				<stop style="stop-color:#ABE7B2" offset="1"/>
			</linearGradient>
			<path d="M1408.5,649.3c2.7,0,5.2,0.3,7.3,0.8c2.2,0.5,4,1.2,5.7,2c1.6,0.8,3,1.6,4.1,2.6c1.1,0.9,2.1,1.8,2.8,2.6&#10;&#9;&#9;&#9;&#9;v-28.1c0-1,0.4-1.8,1.1-2.5c0.7-0.7,1.5-1.1,2.5-1.1h10c1,0,1.8,0.4,2.5,1.1c0.7,0.7,1.1,1.5,1.1,2.5v86.4c0,1-0.4,1.8-1.1,2.5&#10;&#9;&#9;&#9;&#9;c-0.7,0.7-1.5,1.1-2.5,1.1h-10c-1,0-1.8-0.3-2.5-1.1c-0.7-0.7-1.1-1.5-1.1-2.5v-3c-0.7,0.8-1.6,1.6-2.8,2.6&#10;&#9;&#9;&#9;&#9;c-1.1,0.9-2.5,1.8-4.1,2.6c-1.6,0.8-3.5,1.4-5.7,2c-2.2,0.5-4.6,0.8-7.3,0.8c-4.4,0-8.4-0.9-11.9-2.6c-3.6-1.7-6.6-4-9.1-6.9&#10;&#9;&#9;&#9;&#9;c-2.5-2.9-4.5-6.1-5.9-9.9c-1.4-3.7-2.3-7.6-2.4-11.7c-0.1-1.3-0.1-2.9-0.1-4.6c0-1.8,0-3.3,0.1-4.6c0.2-4,1-7.9,2.4-11.7&#10;&#9;&#9;&#9;&#9;c1.4-3.7,3.4-7,5.9-9.9c2.5-2.9,5.5-5.1,9.1-6.8C1400.2,650.2,1404.1,649.3,1408.5,649.3z M1396.3,681.2c-0.3,2.5-0.3,4.9,0,7.4&#10;&#9;&#9;&#9;&#9;c0.5,5.7,2.3,9.8,5.3,12.3c3,2.5,6.6,3.8,10.9,3.8c4.3,0,7.9-1.3,10.9-3.8c2.9-2.5,4.6-6.2,5.1-10.9c0.2-1.3,0.3-3,0.3-5&#10;&#9;&#9;&#9;&#9;c0-2-0.1-3.7-0.3-5c-0.4-4.6-2.1-8.2-5.1-10.8c-2.9-2.6-6.6-4-10.9-4c-4.3,0-7.9,1.3-10.9,3.8&#10;&#9;&#9;&#9;&#9;C1398.6,671.4,1396.8,675.5,1396.3,681.2z" class="st31"/>
		</g>
	</g>
	<g>
		<linearGradient y2="257.7809" x2="972.3749" y1="926.0483" x1="868.6783" gradientUnits="userSpaceOnUse" id="SVGID_32_">
			<stop style="stop-color:#93BFC7" offset="0"/>
			<stop style="stop-color:#ABE7B2" offset="1"/>
		</linearGradient>
		<circle r="16.5" cy="380.7" cx="953.3" class="st32"/>
	</g>
	<g>
		<linearGradient y2="230.778" x2="798.3562" y1="899.0453" x1="694.6595" gradientUnits="userSpaceOnUse" id="SVGID_33_">
			<stop style="stop-color:#93BFC7" offset="0"/>
			<stop style="stop-color:#ABE7B2" offset="1"/>
		</linearGradient>
		<circle r="16.5" cy="392.9" cx="773.2" class="st33"/>
	</g>
	<g>
		<linearGradient y2="254.2865" x2="949.8555" y1="922.5538" x1="846.1588" gradientUnits="userSpaceOnUse" id="SVGID_34_">
			<stop style="stop-color:#93BFC7" offset="0"/>
			<stop style="stop-color:#ABE7B2" offset="1"/>
		</linearGradient>
		<circle r="16.5" cy="842" cx="858.7" class="st34"/>
	</g>
	<g>
		<linearGradient y2="296.2969" x2="1220.5894" y1="964.5643" x1="1116.8927" gradientUnits="userSpaceOnUse" id="SVGID_35_">
			<stop style="stop-color:#93BFC7" offset="0"/>
			<stop style="stop-color:#ABE7B2" offset="1"/>
		</linearGradient>
		<circle r="16.5" cy="865.3" cx="1132.3" class="st35"/>
	</g>
	<g>
		<linearGradient y2="304.7477" x2="1275.05" y1="973.0151" x1="1171.3534" gradientUnits="userSpaceOnUse" id="SVGID_36_">
			<stop style="stop-color:#93BFC7" offset="0"/>
			<stop style="stop-color:#ABE7B2" offset="1"/>
		</linearGradient>
		<circle r="16.5" cy="526.7" cx="1240.6" class="st36"/>
	</g>
</g>
</svg>